<svg width="159" height="39" viewBox="0 0 159 39" fill="none" xmlns="http://www.w3.org/2000/svg">
<path d="M0.0800003 30V0.199997H3.88L20.6 23.28L18.8 23.56V0.199997H23.48V30H19.68L3.08 6.76L4.8 6.44V30H0.0800003ZM35.6903 30.48C34.2236 30.48 32.9303 30.2267 31.8103 29.72C30.717 29.1867 29.8636 28.4667 29.2503 27.56C28.637 26.6267 28.3303 25.5333 28.3303 24.28C28.3303 23.1067 28.5836 22.0533 29.0903 21.12C29.6236 20.1867 30.437 19.4 31.5303 18.76C32.6236 18.12 33.997 17.6667 35.6503 17.4L43.1703 16.16V19.72L36.5303 20.88C35.3303 21.0933 34.4503 21.48 33.8903 22.04C33.3303 22.5733 33.0503 23.2667 33.0503 24.12C33.0503 24.9467 33.357 25.6267 33.9703 26.16C34.6103 26.6667 35.4236 26.92 36.4103 26.92C37.637 26.92 38.7036 26.6533 39.6103 26.12C40.5436 25.5867 41.2636 24.88 41.7703 24C42.277 23.0933 42.5303 22.0933 42.5303 21V15.44C42.5303 14.3733 42.1303 13.5067 41.3303 12.84C40.557 12.1467 39.517 11.8 38.2103 11.8C37.0103 11.8 35.957 12.12 35.0503 12.76C34.1703 13.3733 33.517 14.1733 33.0903 15.16L29.3303 13.28C29.7303 12.2133 30.3836 11.28 31.2903 10.48C32.197 9.65333 33.2503 9.01333 34.4503 8.56C35.677 8.10667 36.9703 7.88 38.3303 7.88C40.037 7.88 41.5436 8.2 42.8503 8.84C44.1836 9.48 45.2103 10.3733 45.9303 11.52C46.677 12.64 47.0503 13.9467 47.0503 15.44V30H42.7303V26.08L43.6503 26.2C43.1436 27.08 42.4903 27.84 41.6903 28.48C40.917 29.12 40.0236 29.6133 39.0103 29.96C38.0236 30.3067 36.917 30.48 35.6903 30.48ZM58.2247 30L49.7447 8.36H54.6647L61.1847 26H59.3847L65.9047 8.36H70.8647L62.3447 30H58.2247ZM83.7063 30.48C81.5463 30.48 79.6263 29.9867 77.9463 29C76.2929 27.9867 74.9996 26.6267 74.0663 24.92C73.1329 23.1867 72.6663 21.2533 72.6663 19.12C72.6663 16.9333 73.1329 15 74.0663 13.32C75.0263 11.64 76.3063 10.32 77.9063 9.36C79.5063 8.37333 81.3196 7.88 83.3463 7.88C84.9729 7.88 86.4263 8.16 87.7063 8.72C88.9863 9.28 90.0663 10.0533 90.9463 11.04C91.8263 12 92.4929 13.1067 92.9462 14.36C93.4263 15.6133 93.6663 16.9467 93.6663 18.36C93.6663 18.7067 93.6529 19.0667 93.6263 19.44C93.5996 19.8133 93.5463 20.16 93.4663 20.48H76.2263V16.88H90.9062L88.7463 18.52C89.0129 17.2133 88.9196 16.0533 88.4663 15.04C88.0396 14 87.3729 13.1867 86.4663 12.6C85.5863 11.9867 84.5463 11.68 83.3463 11.68C82.1463 11.68 81.0796 11.9867 80.1463 12.6C79.2129 13.1867 78.4929 14.04 77.9863 15.16C77.4796 16.2533 77.2796 17.5867 77.3863 19.16C77.2529 20.6267 77.4529 21.9067 77.9863 23C78.5463 24.0933 79.3196 24.9467 80.3063 25.56C81.3196 26.1733 82.4663 26.48 83.7463 26.48C85.0529 26.48 86.1596 26.1867 87.0663 25.6C87.9996 25.0133 88.7329 24.2533 89.2663 23.32L92.9462 25.12C92.5196 26.1333 91.8529 27.0533 90.9463 27.88C90.0663 28.68 88.9996 29.32 87.7463 29.8C86.5196 30.2533 85.1729 30.48 83.7063 30.48ZM108.518 38.8C106.944 38.8 105.491 38.5467 104.158 38.04C102.824 37.5333 101.678 36.8267 100.717 35.92C99.7575 35.04 99.0375 34 98.5575 32.8L102.718 31.08C103.091 32.0933 103.771 32.9333 104.758 33.6C105.771 34.2667 107.011 34.6 108.478 34.6C109.624 34.6 110.651 34.3733 111.558 33.92C112.464 33.4933 113.184 32.8533 113.718 32C114.251 31.1733 114.518 30.1733 114.518 29V24.12L115.318 25.04C114.571 26.4267 113.531 27.48 112.198 28.2C110.891 28.92 109.411 29.28 107.758 29.28C105.758 29.28 103.958 28.8133 102.358 27.88C100.758 26.9467 99.4908 25.6667 98.5575 24.04C97.6508 22.4133 97.1975 20.5867 97.1975 18.56C97.1975 16.5067 97.6508 14.68 98.5575 13.08C99.4908 11.48 100.744 10.2133 102.318 9.28C103.891 8.34667 105.691 7.88 107.718 7.88C109.371 7.88 110.838 8.24 112.118 8.96C113.424 9.65333 114.491 10.6667 115.318 12L114.718 13.12V8.36H118.998V29C118.998 30.8667 118.544 32.5333 117.638 34C116.758 35.4933 115.531 36.6667 113.958 37.52C112.384 38.3733 110.571 38.8 108.518 38.8ZM108.278 25.08C109.478 25.08 110.544 24.8 111.478 24.24C112.411 23.6533 113.144 22.88 113.678 21.92C114.238 20.9333 114.518 19.8267 114.518 18.6C114.518 17.3733 114.238 16.2667 113.678 15.28C113.118 14.2933 112.371 13.52 111.438 12.96C110.504 12.3733 109.451 12.08 108.278 12.08C107.051 12.08 105.958 12.3733 104.998 12.96C104.038 13.52 103.278 14.2933 102.718 15.28C102.184 16.24 101.918 17.3467 101.918 18.6C101.918 19.8 102.184 20.8933 102.718 21.88C103.278 22.8667 104.038 23.6533 104.998 24.24C105.958 24.8 107.051 25.08 108.278 25.08ZM130.768 30.48C129.302 30.48 128.008 30.2267 126.888 29.72C125.795 29.1867 124.942 28.4667 124.328 27.56C123.715 26.6267 123.408 25.5333 123.408 24.28C123.408 23.1067 123.662 22.0533 124.168 21.12C124.702 20.1867 125.515 19.4 126.608 18.76C127.702 18.12 129.075 17.6667 130.728 17.4L138.248 16.16V19.72L131.608 20.88C130.408 21.0933 129.528 21.48 128.968 22.04C128.408 22.5733 128.128 23.2667 128.128 24.12C128.128 24.9467 128.435 25.6267 129.048 26.16C129.688 26.6667 130.502 26.92 131.488 26.92C132.715 26.92 133.782 26.6533 134.688 26.12C135.622 25.5867 136.342 24.88 136.848 24C137.355 23.0933 137.608 22.0933 137.608 21V15.44C137.608 14.3733 137.208 13.5067 136.408 12.84C135.635 12.1467 134.595 11.8 133.288 11.8C132.088 11.8 131.035 12.12 130.128 12.76C129.248 13.3733 128.595 14.1733 128.168 15.16L124.408 13.28C124.808 12.2133 125.462 11.28 126.368 10.48C127.275 9.65333 128.328 9.01333 129.528 8.56C130.755 8.10667 132.048 7.88 133.408 7.88C135.115 7.88 136.622 8.2 137.928 8.84C139.262 9.48 140.288 10.3733 141.008 11.52C141.755 12.64 142.128 13.9467 142.128 15.44V30H137.808V26.08L138.728 26.2C138.222 27.08 137.568 27.84 136.768 28.48C135.995 29.12 135.102 29.6133 134.088 29.96C133.102 30.3067 131.995 30.48 130.768 30.48ZM147.413 30V8.36H151.733V12.72L151.333 12.08C151.813 10.6667 152.587 9.65333 153.653 9.04C154.72 8.4 156 8.08 157.493 8.08H158.813V12.2H156.933C155.44 12.2 154.227 12.6667 153.293 13.6C152.387 14.5067 151.933 15.8133 151.933 17.52V30H147.413Z" fill="#E1E1E6"/>
</svg>
